<mxfile host="app.diagrams.net" modified="2023-05-20T01:46:35.642Z" agent="Mozilla/5.0 (Windows NT 10.0; Win64; x64) AppleWebKit/537.36 (KHTML, like Gecko) Chrome/113.0.0.0 Safari/537.36" version="21.3.2" etag="fygbzNnwP1LyFnEFCoSI" type="github">
  <diagram name="PÃ¡gina-1" id="7Zcn0Xr0_yk5nbGni8Ga">
    <mxGraphModel>
      <root>
        <mxCell id="0" />
        <mxCell id="1" parent="0" />
      </root>
    </mxGraphModel>
  </diagram>
</mxfile>
